# xmcd
#
# Track frame offsets:
#	150
#	8175
#	13425
#	17850
#	25171
#	36041
#	47199
#	55858
#	69324
#	81440
#	95663
#	107859
#	117009
#	128184
#	139463
#	154334
#	165534
#	176814
#	186153
#	200419
#	212322
#	218019
#	223468
#	229927
#	235928
#	243068
#
# Disc length: 3328 seconds
#
# Revision: 1
# Processed by: cddbd v1.4PL0 Copyright (c) Steve Scherf et al.
# Submitted via: audiograbber 1.80.04
#
DISCID=7a0cfe1a
DTITLE=Various Artist - Country Partie Treffers
DYEAR=2002
DGENRE=Country
TTITLE0=I Want To Be A Cowboy
TTITLE1=When The Saints Go Marching In
TTITLE2=I want To Be A Gowgirl
TTITLE3=It's Hard To Be Humble
TTITLE4=Something Stupid
TTITLE5=Achy Breaky Heart
TTITLE6=Proud Mary
TTITLE7=Locomotion
TTITLE8=Oh, Pretty Woman
TTITLE9=I Can't Get You Out Of my Head
TTITLE10=Country Roads
TTITLE11=Love Hearts
TTITLE12=Wandrin Star
TTITLE13=Jolene
TTITLE14=Everybody's Talking
TTITLE15=The Most Beautiful Girl
TTITLE16=Honky Tong Blues
TTITLE17=Rockin' All Over The World
TTITLE18=How Do I Live
TTITLE19=Walk Of Life
TTITLE20=The End Of The Line
TTITLE21=Looking Out Of My Backdoor
TTITLE22=Bye Bye Love
TTITLE23=Good Hearted Woman
TTITLE24=Do What You Do Do Well
TTITLE25=Ashes Of Love
EXTD=
EXTT0=
EXTT1=
EXTT2=
EXTT3=
EXTT4=
EXTT5=
EXTT6=
EXTT7=
EXTT8=
EXTT9=
EXTT10=
EXTT11=
EXTT12=
EXTT13=
EXTT14=
EXTT15=
EXTT16=
EXTT17=
EXTT18=
EXTT19=
EXTT20=
EXTT21=
EXTT22=
EXTT23=
EXTT24=
EXTT25=
PLAYORDER=
